solid OpenSCAD_Model
  facet normal -1 0 0
    outer loop
      vertex 0 4 0
      vertex 0 0 0
      vertex 0 4 21
    endloop
  endfacet
  facet normal -1 0 0
    outer loop
      vertex 0 4 21
      vertex 0 20 25
      vertex 0 20 21
    endloop
  endfacet
  facet normal -1 0 0
    outer loop
      vertex 0 4 21
      vertex 0 0 25
      vertex 0 20 25
    endloop
  endfacet
  facet normal -1 0 0
    outer loop
      vertex 0 0 25
      vertex 0 4 21
      vertex 0 0 0
    endloop
  endfacet
  facet normal -0 0 1
    outer loop
      vertex 0 20 25
      vertex 20 0 25
      vertex 20 20 25
    endloop
  endfacet
  facet normal 0 0 1
    outer loop
      vertex 20 0 25
      vertex 0 20 25
      vertex 0 0 25
    endloop
  endfacet
  facet normal 1 0 0
    outer loop
      vertex 20 20 25
      vertex 20 4 21
      vertex 20 20 21
    endloop
  endfacet
  facet normal 1 -0 0
    outer loop
      vertex 20 0 25
      vertex 20 4 21
      vertex 20 20 25
    endloop
  endfacet
  facet normal 1 0 0
    outer loop
      vertex 20 0 0
      vertex 20 4 21
      vertex 20 0 25
    endloop
  endfacet
  facet normal 1 0 0
    outer loop
      vertex 20 4 21
      vertex 20 0 0
      vertex 20 4 0
    endloop
  endfacet
  facet normal 0 1 0
    outer loop
      vertex 20 4 21
      vertex 10 4 20
      vertex 0 4 21
    endloop
  endfacet
  facet normal 0 1 0
    outer loop
      vertex 20 4 21
      vertex 10.7765 4 19.8978
      vertex 10 4 20
    endloop
  endfacet
  facet normal 0 1 0
    outer loop
      vertex 20 4 21
      vertex 11.5 4 19.5981
      vertex 10.7765 4 19.8978
    endloop
  endfacet
  facet normal 0 1 0
    outer loop
      vertex 20 4 21
      vertex 12.1213 4 19.1213
      vertex 11.5 4 19.5981
    endloop
  endfacet
  facet normal 0 1 0
    outer loop
      vertex 20 4 21
      vertex 12.5981 4 18.5
      vertex 12.1213 4 19.1213
    endloop
  endfacet
  facet normal 0 1 0
    outer loop
      vertex 20 4 21
      vertex 12.8978 4 17.7765
      vertex 12.5981 4 18.5
    endloop
  endfacet
  facet normal 0 1 0
    outer loop
      vertex 20 4 21
      vertex 13 4 17
      vertex 12.8978 4 17.7765
    endloop
  endfacet
  facet normal 0 1 0
    outer loop
      vertex 20 4 21
      vertex 13 4 8
      vertex 13 4 17
    endloop
  endfacet
  facet normal 0 1 -0
    outer loop
      vertex 20 4 0
      vertex 13 4 8
      vertex 20 4 21
    endloop
  endfacet
  facet normal 0 1 0
    outer loop
      vertex 13 4 8
      vertex 20 4 0
      vertex 12.8978 4 7.22354
    endloop
  endfacet
  facet normal 0 1 0
    outer loop
      vertex 10.7765 4 5.10222
      vertex 20 4 0
      vertex 10 4 5
    endloop
  endfacet
  facet normal 0 1 0
    outer loop
      vertex 11.5 4 5.40192
      vertex 20 4 0
      vertex 10.7765 4 5.10222
    endloop
  endfacet
  facet normal 0 1 0
    outer loop
      vertex 12.1213 4 5.87868
      vertex 20 4 0
      vertex 11.5 4 5.40192
    endloop
  endfacet
  facet normal 0 1 0
    outer loop
      vertex 12.5981 4 6.5
      vertex 20 4 0
      vertex 12.1213 4 5.87868
    endloop
  endfacet
  facet normal 0 1 0
    outer loop
      vertex 12.8978 4 7.22354
      vertex 20 4 0
      vertex 12.5981 4 6.5
    endloop
  endfacet
  facet normal 0 1 -0
    outer loop
      vertex 9.22354 4 19.8978
      vertex 0 4 21
      vertex 10 4 20
    endloop
  endfacet
  facet normal 0 1 -0
    outer loop
      vertex 8.5 4 19.5981
      vertex 0 4 21
      vertex 9.22354 4 19.8978
    endloop
  endfacet
  facet normal 0 1 -0
    outer loop
      vertex 7.87868 4 19.1213
      vertex 0 4 21
      vertex 8.5 4 19.5981
    endloop
  endfacet
  facet normal 0 1 -0
    outer loop
      vertex 7.40192 4 18.5
      vertex 0 4 21
      vertex 7.87868 4 19.1213
    endloop
  endfacet
  facet normal 0 1 -0
    outer loop
      vertex 7.10222 4 17.7765
      vertex 0 4 21
      vertex 7.40192 4 18.5
    endloop
  endfacet
  facet normal 0 1 -0
    outer loop
      vertex 7 4 17
      vertex 0 4 21
      vertex 7.10222 4 17.7765
    endloop
  endfacet
  facet normal 0 1 -0
    outer loop
      vertex 7 4 8
      vertex 0 4 21
      vertex 7 4 17
    endloop
  endfacet
  facet normal 0 1 0
    outer loop
      vertex 0 4 0
      vertex 7 4 8
      vertex 7.10222 4 7.22354
    endloop
  endfacet
  facet normal 0 1 0
    outer loop
      vertex 0 4 0
      vertex 7.10222 4 7.22354
      vertex 7.40192 4 6.5
    endloop
  endfacet
  facet normal 0 1 0
    outer loop
      vertex 0 4 0
      vertex 10 4 5
      vertex 20 4 0
    endloop
  endfacet
  facet normal 0 1 0
    outer loop
      vertex 10 4 5
      vertex 0 4 0
      vertex 9.22354 4 5.10222
    endloop
  endfacet
  facet normal 0 1 0
    outer loop
      vertex 7 4 8
      vertex 0 4 0
      vertex 0 4 21
    endloop
  endfacet
  facet normal 0 1 0
    outer loop
      vertex 7.87868 4 5.87868
      vertex 0 4 0
      vertex 7.40192 4 6.5
    endloop
  endfacet
  facet normal 0 1 0
    outer loop
      vertex 8.5 4 5.40192
      vertex 0 4 0
      vertex 7.87868 4 5.87868
    endloop
  endfacet
  facet normal 0 1 0
    outer loop
      vertex 9.22354 4 5.10222
      vertex 0 4 0
      vertex 8.5 4 5.40192
    endloop
  endfacet
  facet normal 0 0 -1
    outer loop
      vertex 0 0 0
      vertex 20 4 0
      vertex 20 0 0
    endloop
  endfacet
  facet normal -0 0 -1
    outer loop
      vertex 20 4 0
      vertex 0 0 0
      vertex 0 4 0
    endloop
  endfacet
  facet normal 0 -1 0
    outer loop
      vertex 0 0 25
      vertex 10 0 20
      vertex 20 0 25
    endloop
  endfacet
  facet normal 0 -1 0
    outer loop
      vertex 0 0 25
      vertex 9.22354 0 19.8978
      vertex 10 0 20
    endloop
  endfacet
  facet normal 0 -1 0
    outer loop
      vertex 0 0 25
      vertex 8.5 0 19.5981
      vertex 9.22354 0 19.8978
    endloop
  endfacet
  facet normal 0 -1 0
    outer loop
      vertex 0 0 25
      vertex 7.87868 0 19.1213
      vertex 8.5 0 19.5981
    endloop
  endfacet
  facet normal 0 -1 0
    outer loop
      vertex 0 0 25
      vertex 7.40192 0 18.5
      vertex 7.87868 0 19.1213
    endloop
  endfacet
  facet normal 0 -1 0
    outer loop
      vertex 0 0 25
      vertex 7.10222 0 17.7765
      vertex 7.40192 0 18.5
    endloop
  endfacet
  facet normal 0 -1 0
    outer loop
      vertex 0 0 25
      vertex 7 0 17
      vertex 7.10222 0 17.7765
    endloop
  endfacet
  facet normal 0 -1 0
    outer loop
      vertex 0 0 25
      vertex 7 0 8
      vertex 7 0 17
    endloop
  endfacet
  facet normal 0 -1 0
    outer loop
      vertex 0 0 0
      vertex 7 0 8
      vertex 0 0 25
    endloop
  endfacet
  facet normal 0 -1 -0
    outer loop
      vertex 9.22354 0 5.10222
      vertex 0 0 0
      vertex 10 0 5
    endloop
  endfacet
  facet normal 0 -1 -0
    outer loop
      vertex 8.5 0 5.40192
      vertex 0 0 0
      vertex 9.22354 0 5.10222
    endloop
  endfacet
  facet normal 0 -1 -0
    outer loop
      vertex 7.87868 0 5.87868
      vertex 0 0 0
      vertex 8.5 0 5.40192
    endloop
  endfacet
  facet normal 0 -1 -0
    outer loop
      vertex 7.40192 0 6.5
      vertex 0 0 0
      vertex 7.87868 0 5.87868
    endloop
  endfacet
  facet normal 0 -1 -0
    outer loop
      vertex 7.10222 0 7.22354
      vertex 0 0 0
      vertex 7.40192 0 6.5
    endloop
  endfacet
  facet normal 0 -1 -0
    outer loop
      vertex 7 0 8
      vertex 0 0 0
      vertex 7.10222 0 7.22354
    endloop
  endfacet
  facet normal 0 -1 0
    outer loop
      vertex 10.7765 0 19.8978
      vertex 20 0 25
      vertex 10 0 20
    endloop
  endfacet
  facet normal 0 -1 0
    outer loop
      vertex 11.5 0 19.5981
      vertex 20 0 25
      vertex 10.7765 0 19.8978
    endloop
  endfacet
  facet normal 0 -1 0
    outer loop
      vertex 12.1213 0 19.1213
      vertex 20 0 25
      vertex 11.5 0 19.5981
    endloop
  endfacet
  facet normal 0 -1 0
    outer loop
      vertex 12.5981 0 18.5
      vertex 20 0 25
      vertex 12.1213 0 19.1213
    endloop
  endfacet
  facet normal 0 -1 0
    outer loop
      vertex 12.8978 0 17.7765
      vertex 20 0 25
      vertex 12.5981 0 18.5
    endloop
  endfacet
  facet normal 0 -1 0
    outer loop
      vertex 13 0 17
      vertex 20 0 25
      vertex 12.8978 0 17.7765
    endloop
  endfacet
  facet normal 0 -1 0
    outer loop
      vertex 13 0 8
      vertex 20 0 25
      vertex 13 0 17
    endloop
  endfacet
  facet normal 0 -1 0
    outer loop
      vertex 20 0 0
      vertex 13 0 8
      vertex 12.8978 0 7.22354
    endloop
  endfacet
  facet normal 0 -1 0
    outer loop
      vertex 20 0 0
      vertex 10 0 5
      vertex 0 0 0
    endloop
  endfacet
  facet normal 0 -1 0
    outer loop
      vertex 10 0 5
      vertex 20 0 0
      vertex 10.7765 0 5.10222
    endloop
  endfacet
  facet normal 0 -1 0
    outer loop
      vertex 13 0 8
      vertex 20 0 0
      vertex 20 0 25
    endloop
  endfacet
  facet normal 0 -1 0
    outer loop
      vertex 12.5981 0 6.5
      vertex 20 0 0
      vertex 12.8978 0 7.22354
    endloop
  endfacet
  facet normal 0 -1 0
    outer loop
      vertex 12.1213 0 5.87868
      vertex 20 0 0
      vertex 12.5981 0 6.5
    endloop
  endfacet
  facet normal 0 -1 0
    outer loop
      vertex 11.5 0 5.40192
      vertex 20 0 0
      vertex 12.1213 0 5.87868
    endloop
  endfacet
  facet normal 0 -1 0
    outer loop
      vertex 10.7765 0 5.10222
      vertex 20 0 0
      vertex 11.5 0 5.40192
    endloop
  endfacet
  facet normal 0 1 -0
    outer loop
      vertex 20 20 21
      vertex 0 20 25
      vertex 20 20 25
    endloop
  endfacet
  facet normal 0 1 0
    outer loop
      vertex 0 20 25
      vertex 20 20 21
      vertex 0 20 21
    endloop
  endfacet
  facet normal 0 0 -1
    outer loop
      vertex 0 4 21
      vertex 20 20 21
      vertex 20 4 21
    endloop
  endfacet
  facet normal -0 0 -1
    outer loop
      vertex 20 20 21
      vertex 0 4 21
      vertex 0 20 21
    endloop
  endfacet
  facet normal 0.923872 0 -0.382701
    outer loop
      vertex 7.40192 0 18.5
      vertex 7.10222 4 17.7765
      vertex 7.40192 4 18.5
    endloop
  endfacet
  facet normal 0.923872 0 -0.382701
    outer loop
      vertex 7.10222 4 17.7765
      vertex 7.40192 0 18.5
      vertex 7.10222 0 17.7765
    endloop
  endfacet
  facet normal -0.991449 0 0.130497
    outer loop
      vertex 12.8978 0 7.22354
      vertex 13 4 8
      vertex 12.8978 4 7.22354
    endloop
  endfacet
  facet normal -0.991449 0 0.130497
    outer loop
      vertex 13 4 8
      vertex 12.8978 0 7.22354
      vertex 13 0 8
    endloop
  endfacet
  facet normal 0.991446 0 -0.130516
    outer loop
      vertex 7.10222 0 17.7765
      vertex 7 4 17
      vertex 7.10222 4 17.7765
    endloop
  endfacet
  facet normal 0.991446 0 -0.130516
    outer loop
      vertex 7 4 17
      vertex 7.10222 0 17.7765
      vertex 7 0 17
    endloop
  endfacet
  facet normal 0.130523 0 0.991445
    outer loop
      vertex 9.22354 4 5.10222
      vertex 10 0 5
      vertex 10 4 5
    endloop
  endfacet
  facet normal 0.130523 0 0.991445
    outer loop
      vertex 10 0 5
      vertex 9.22354 4 5.10222
      vertex 9.22354 0 5.10222
    endloop
  endfacet
  facet normal 0.991445 -0 0.130523
    outer loop
      vertex 7 0 8
      vertex 7.10222 4 7.22354
      vertex 7 4 8
    endloop
  endfacet
  facet normal 0.991445 0 0.130523
    outer loop
      vertex 7.10222 4 7.22354
      vertex 7 0 8
      vertex 7.10222 0 7.22354
    endloop
  endfacet
  facet normal -0.923872 0 -0.382701
    outer loop
      vertex 12.8978 0 17.7765
      vertex 12.5981 4 18.5
      vertex 12.8978 4 17.7765
    endloop
  endfacet
  facet normal -0.923872 -0 -0.382701
    outer loop
      vertex 12.5981 4 18.5
      vertex 12.8978 0 17.7765
      vertex 12.5981 0 18.5
    endloop
  endfacet
  facet normal 1 -0 0
    outer loop
      vertex 7 0 17
      vertex 7 4 8
      vertex 7 4 17
    endloop
  endfacet
  facet normal 1 0 0
    outer loop
      vertex 7 4 8
      vertex 7 0 17
      vertex 7 0 8
    endloop
  endfacet
  facet normal 0.92388 -0 0.382683
    outer loop
      vertex 7.10222 0 7.22354
      vertex 7.40192 4 6.5
      vertex 7.10222 4 7.22354
    endloop
  endfacet
  facet normal 0.92388 0 0.382683
    outer loop
      vertex 7.40192 4 6.5
      vertex 7.10222 0 7.22354
      vertex 7.40192 0 6.5
    endloop
  endfacet
  facet normal 0.608797 0 -0.793326
    outer loop
      vertex 7.87868 0 19.1213
      vertex 8.5 4 19.5981
      vertex 8.5 0 19.5981
    endloop
  endfacet
  facet normal 0.608797 0 -0.793326
    outer loop
      vertex 8.5 4 19.5981
      vertex 7.87868 0 19.1213
      vertex 7.87868 4 19.1213
    endloop
  endfacet
  facet normal 0.382683 0 0.92388
    outer loop
      vertex 8.5 4 5.40192
      vertex 9.22354 0 5.10222
      vertex 9.22354 4 5.10222
    endloop
  endfacet
  facet normal 0.382683 0 0.92388
    outer loop
      vertex 9.22354 0 5.10222
      vertex 8.5 4 5.40192
      vertex 8.5 0 5.40192
    endloop
  endfacet
  facet normal 0.793351 -0 0.608765
    outer loop
      vertex 7.40192 0 6.5
      vertex 7.87868 4 5.87868
      vertex 7.40192 4 6.5
    endloop
  endfacet
  facet normal 0.793351 0 0.608765
    outer loop
      vertex 7.87868 4 5.87868
      vertex 7.40192 0 6.5
      vertex 7.87868 0 5.87868
    endloop
  endfacet
  facet normal -0.99145 0 -0.130491
    outer loop
      vertex 13 0 17
      vertex 12.8978 4 17.7765
      vertex 13 4 17
    endloop
  endfacet
  facet normal -0.99145 -0 -0.130491
    outer loop
      vertex 12.8978 4 17.7765
      vertex 13 0 17
      vertex 12.8978 0 17.7765
    endloop
  endfacet
  facet normal -1 0 0
    outer loop
      vertex 13 0 8
      vertex 13 4 17
      vertex 13 4 8
    endloop
  endfacet
  facet normal -1 -0 0
    outer loop
      vertex 13 4 17
      vertex 13 0 8
      vertex 13 0 17
    endloop
  endfacet
  facet normal 0.382683 0 -0.92388
    outer loop
      vertex 8.5 0 19.5981
      vertex 9.22354 4 19.8978
      vertex 9.22354 0 19.8978
    endloop
  endfacet
  facet normal 0.382683 0 -0.92388
    outer loop
      vertex 9.22354 4 19.8978
      vertex 8.5 0 19.5981
      vertex 8.5 4 19.5981
    endloop
  endfacet
  facet normal 0.793341 0 -0.608777
    outer loop
      vertex 7.87868 0 19.1213
      vertex 7.40192 4 18.5
      vertex 7.87868 4 19.1213
    endloop
  endfacet
  facet normal 0.793341 0 -0.608777
    outer loop
      vertex 7.40192 4 18.5
      vertex 7.87868 0 19.1213
      vertex 7.40192 0 18.5
    endloop
  endfacet
  facet normal -0.608809 0 -0.793316
    outer loop
      vertex 11.5 0 19.5981
      vertex 12.1213 4 19.1213
      vertex 12.1213 0 19.1213
    endloop
  endfacet
  facet normal -0.608809 0 -0.793316
    outer loop
      vertex 12.1213 4 19.1213
      vertex 11.5 0 19.5981
      vertex 11.5 4 19.5981
    endloop
  endfacet
  facet normal -0.130491 0 -0.99145
    outer loop
      vertex 10 0 20
      vertex 10.7765 4 19.8978
      vertex 10.7765 0 19.8978
    endloop
  endfacet
  facet normal -0.130491 0 -0.99145
    outer loop
      vertex 10.7765 4 19.8978
      vertex 10 0 20
      vertex 10 4 20
    endloop
  endfacet
  facet normal -0.793326 0 0.608797
    outer loop
      vertex 12.1213 0 5.87868
      vertex 12.5981 4 6.5
      vertex 12.1213 4 5.87868
    endloop
  endfacet
  facet normal -0.793326 0 0.608797
    outer loop
      vertex 12.5981 4 6.5
      vertex 12.1213 0 5.87868
      vertex 12.5981 0 6.5
    endloop
  endfacet
  facet normal -0.130516 0 0.991446
    outer loop
      vertex 10 4 5
      vertex 10.7765 0 5.10222
      vertex 10.7765 4 5.10222
    endloop
  endfacet
  facet normal -0.130516 0 0.991446
    outer loop
      vertex 10.7765 0 5.10222
      vertex 10 4 5
      vertex 10 0 5
    endloop
  endfacet
  facet normal -0.382701 0 0.923872
    outer loop
      vertex 10.7765 4 5.10222
      vertex 11.5 0 5.40192
      vertex 11.5 4 5.40192
    endloop
  endfacet
  facet normal -0.382701 0 0.923872
    outer loop
      vertex 11.5 0 5.40192
      vertex 10.7765 4 5.10222
      vertex 10.7765 0 5.10222
    endloop
  endfacet
  facet normal 0.608765 0 0.793351
    outer loop
      vertex 7.87868 4 5.87868
      vertex 8.5 0 5.40192
      vertex 8.5 4 5.40192
    endloop
  endfacet
  facet normal 0.608765 0 0.793351
    outer loop
      vertex 8.5 0 5.40192
      vertex 7.87868 4 5.87868
      vertex 7.87868 0 5.87868
    endloop
  endfacet
  facet normal 0.130497 0 -0.991449
    outer loop
      vertex 9.22354 0 19.8978
      vertex 10 4 20
      vertex 10 0 20
    endloop
  endfacet
  facet normal 0.130497 0 -0.991449
    outer loop
      vertex 10 4 20
      vertex 9.22354 0 19.8978
      vertex 9.22354 4 19.8978
    endloop
  endfacet
  facet normal -0.382701 0 -0.923872
    outer loop
      vertex 10.7765 0 19.8978
      vertex 11.5 4 19.5981
      vertex 11.5 0 19.5981
    endloop
  endfacet
  facet normal -0.382701 0 -0.923872
    outer loop
      vertex 11.5 4 19.5981
      vertex 10.7765 0 19.8978
      vertex 10.7765 4 19.8978
    endloop
  endfacet
  facet normal -0.793316 0 -0.608809
    outer loop
      vertex 12.5981 0 18.5
      vertex 12.1213 4 19.1213
      vertex 12.5981 4 18.5
    endloop
  endfacet
  facet normal -0.793316 -0 -0.608809
    outer loop
      vertex 12.1213 4 19.1213
      vertex 12.5981 0 18.5
      vertex 12.1213 0 19.1213
    endloop
  endfacet
  facet normal -0.608777 0 0.793341
    outer loop
      vertex 11.5 4 5.40192
      vertex 12.1213 0 5.87868
      vertex 12.1213 4 5.87868
    endloop
  endfacet
  facet normal -0.608777 0 0.793341
    outer loop
      vertex 12.1213 0 5.87868
      vertex 11.5 4 5.40192
      vertex 11.5 0 5.40192
    endloop
  endfacet
  facet normal -0.92388 0 0.382683
    outer loop
      vertex 12.5981 0 6.5
      vertex 12.8978 4 7.22354
      vertex 12.5981 4 6.5
    endloop
  endfacet
  facet normal -0.92388 0 0.382683
    outer loop
      vertex 12.8978 4 7.22354
      vertex 12.5981 0 6.5
      vertex 12.8978 0 7.22354
    endloop
  endfacet
endsolid OpenSCAD_Model
